<mxfile host="65bd71144e" scale="4" border="0">
    <diagram id="2pkDhd71fD2mC2tWStdZ" name="Page-1">
        <mxGraphModel dx="1983" dy="1609" grid="1" gridSize="10" guides="1" tooltips="1" connect="1" arrows="1" fold="1" page="1" pageScale="1" pageWidth="827" pageHeight="1169" background="#FFFFFF" math="0" shadow="0">
            <root>
                <mxCell id="0"/>
                <mxCell id="1" parent="0"/>
                <mxCell id="O_CSJ5SETcwsMR54zyhG-16" value="Visualizzazione interventi" style="ellipse;whiteSpace=wrap;html=1;strokeColor=#000000;" parent="1" vertex="1">
                    <mxGeometry x="360" y="890" width="90" height="60" as="geometry"/>
                </mxCell>
                <mxCell id="OmCYWnrhbO7qevd_RyAj-28" value="Richiesta intervento di riparazione" style="ellipse;whiteSpace=wrap;html=1;strokeColor=#000000;" parent="1" vertex="1">
                    <mxGeometry x="360" y="1010" width="90" height="60" as="geometry"/>
                </mxCell>
                <mxCell id="OmCYWnrhbO7qevd_RyAj-53" value="&amp;lt;extend&amp;gt;" style="endArrow=open;endSize=8;endFill=0;html=1;rounded=0;dashed=1;exitX=0.5;exitY=0;exitDx=0;exitDy=0;entryX=0.5;entryY=1;entryDx=0;entryDy=0;startSize=0;" parent="1" source="OmCYWnrhbO7qevd_RyAj-28" target="O_CSJ5SETcwsMR54zyhG-16" edge="1">
                    <mxGeometry width="160" relative="1" as="geometry">
                        <mxPoint x="610" y="500" as="sourcePoint"/>
                        <mxPoint x="500" y="530" as="targetPoint"/>
                    </mxGeometry>
                </mxCell>
                <mxCell id="OmCYWnrhbO7qevd_RyAj-61" style="edgeStyle=none;rounded=0;orthogonalLoop=1;jettySize=auto;html=1;exitX=0.5;exitY=0.5;exitDx=0;exitDy=0;exitPerimeter=0;entryX=0;entryY=0.5;entryDx=0;entryDy=0;endArrow=none;endFill=0;endSize=10;" parent="1" source="OmCYWnrhbO7qevd_RyAj-58" target="O_CSJ5SETcwsMR54zyhG-16" edge="1">
                    <mxGeometry relative="1" as="geometry"/>
                </mxCell>
                <mxCell id="OmCYWnrhbO7qevd_RyAj-58" value="Cliente" style="shape=umlActor;verticalLabelPosition=bottom;verticalAlign=top;html=1;outlineConnect=0;perimeterSpacing=14;" parent="1" vertex="1">
                    <mxGeometry x="260" y="890" width="30" height="60" as="geometry"/>
                </mxCell>
                <mxCell id="OmCYWnrhbO7qevd_RyAj-66" style="edgeStyle=none;rounded=0;orthogonalLoop=1;jettySize=auto;html=1;exitX=0.5;exitY=0.5;exitDx=0;exitDy=0;exitPerimeter=0;entryX=1;entryY=0.5;entryDx=0;entryDy=0;endArrow=none;endFill=0;endSize=10;" parent="1" source="OmCYWnrhbO7qevd_RyAj-60" target="O_CSJ5SETcwsMR54zyhG-16" edge="1">
                    <mxGeometry relative="1" as="geometry">
                        <mxPoint x="610" y="920" as="targetPoint"/>
                    </mxGeometry>
                </mxCell>
                <mxCell id="OmCYWnrhbO7qevd_RyAj-71" style="edgeStyle=none;rounded=0;orthogonalLoop=1;jettySize=auto;html=1;exitX=0.5;exitY=0.5;exitDx=0;exitDy=0;exitPerimeter=0;entryX=1;entryY=0.5;entryDx=0;entryDy=0;endArrow=none;endFill=0;endSize=10;" parent="1" source="OmCYWnrhbO7qevd_RyAj-60" target="OmCYWnrhbO7qevd_RyAj-28" edge="1">
                    <mxGeometry relative="1" as="geometry">
                        <mxPoint x="610" y="1000" as="targetPoint"/>
                    </mxGeometry>
                </mxCell>
                <mxCell id="OmCYWnrhbO7qevd_RyAj-60" value="Ardeeno DataLayer" style="shape=umlActor;verticalLabelPosition=bottom;verticalAlign=top;html=1;outlineConnect=0;" parent="1" vertex="1">
                    <mxGeometry x="540" y="890" width="30" height="60" as="geometry"/>
                </mxCell>
            </root>
        </mxGraphModel>
    </diagram>
</mxfile>